<svg width="1418" height="55" viewBox="0 0 1418 55" fill="none" xmlns="http://www.w3.org/2000/svg">
<path d="M27.3438 32L21.8438 24.6562H19.875V32H17.9375V16H19.875V22.9375H20.7188L27.125 16H29.4375L22.9688 23.0312L29.6562 32H27.3438ZM35.4414 32.2813C34.681 32.2813 33.9909 32.138 33.3711 31.8516C32.7513 31.5599 32.2591 31.1406 31.8945 30.5938C31.5299 30.0417 31.3477 29.375 31.3477 28.5937C31.3477 27.9062 31.4831 27.349 31.7539 26.9219C32.0247 26.4896 32.3867 26.151 32.8398 25.9062C33.293 25.6615 33.793 25.4792 34.3398 25.3594C34.8919 25.2344 35.4466 25.1354 36.0039 25.0625C36.7331 24.9687 37.3242 24.8984 37.7773 24.8516C38.2357 24.7995 38.569 24.7135 38.7773 24.5937C38.9909 24.474 39.0977 24.2656 39.0977 23.9687V23.9062C39.0977 23.1354 38.8867 22.5365 38.4648 22.1094C38.0482 21.6823 37.4154 21.4687 36.5664 21.4687C35.6862 21.4687 34.9961 21.6615 34.4961 22.0469C33.9961 22.4323 33.6445 22.8437 33.4414 23.2812L31.6914 22.6562C32.0039 21.9271 32.4206 21.3594 32.9414 20.9531C33.4674 20.5417 34.0404 20.2552 34.6602 20.0937C35.2852 19.9271 35.8997 19.8438 36.5039 19.8438C36.8893 19.8438 37.332 19.8906 37.832 19.9844C38.3372 20.0729 38.8242 20.2578 39.293 20.5391C39.7669 20.8203 40.1602 21.2448 40.4727 21.8125C40.7852 22.3802 40.9414 23.1406 40.9414 24.0938V32H39.0977V30.375H39.0039C38.8789 30.6354 38.6706 30.9141 38.3789 31.2109C38.0872 31.5078 37.6992 31.7604 37.2148 31.9687C36.7305 32.1771 36.1393 32.2813 35.4414 32.2813ZM35.7227 30.625C36.4518 30.625 37.0664 30.4818 37.5664 30.1953C38.0716 29.9089 38.4518 29.5391 38.707 29.0859C38.9674 28.6328 39.0977 28.1562 39.0977 27.6562V25.9687C39.0195 26.0625 38.8477 26.1484 38.582 26.2266C38.3216 26.2995 38.0195 26.3646 37.6758 26.4219C37.3372 26.474 37.0065 26.5208 36.6836 26.5625C36.3659 26.599 36.1081 26.6302 35.9102 26.6562C35.431 26.7187 34.9831 26.8203 34.5664 26.9609C34.1549 27.0964 33.8216 27.3021 33.5664 27.5781C33.3164 27.849 33.1914 28.2187 33.1914 28.6875C33.1914 29.3281 33.4284 29.8125 33.9023 30.1406C34.3815 30.4635 34.9883 30.625 35.7227 30.625ZM49.1816 36.0938V16H51.0254V36.0938H49.1816ZM49.1816 32.25C48.3691 32.25 47.6296 32.1042 46.9629 31.8125C46.2962 31.5156 45.7233 31.0964 45.2441 30.5547C44.765 30.0078 44.3952 29.3542 44.1348 28.5937C43.8743 27.8333 43.7441 26.9896 43.7441 26.0625C43.7441 25.125 43.8743 24.276 44.1348 23.5156C44.3952 22.75 44.765 22.0937 45.2441 21.5469C45.7233 21 46.2962 20.5807 46.9629 20.2891C47.6296 19.9922 48.3691 19.8438 49.1816 19.8438H49.7441V32.25H49.1816ZM49.1816 30.5938H49.4941V21.5H49.1816C48.5671 21.5 48.0332 21.625 47.5801 21.875C47.127 22.1198 46.752 22.4557 46.4551 22.8828C46.1634 23.3047 45.9447 23.7891 45.7988 24.3359C45.6582 24.8828 45.5879 25.4583 45.5879 26.0625C45.5879 26.8646 45.7155 27.6094 45.9707 28.2969C46.2259 28.9844 46.6191 29.5391 47.1504 29.9609C47.6816 30.3828 48.3587 30.5938 49.1816 30.5938ZM51.0254 32.25H50.4629V19.8438H51.0254C51.8379 19.8438 52.5775 19.9922 53.2441 20.2891C53.9108 20.5807 54.4837 21 54.9629 21.5469C55.4421 22.0937 55.8118 22.75 56.0723 23.5156C56.3327 24.276 56.4629 25.125 56.4629 26.0625C56.4629 26.9896 56.3327 27.8333 56.0723 28.5937C55.8118 29.3542 55.4421 30.0078 54.9629 30.5547C54.4837 31.0964 53.9108 31.5156 53.2441 31.8125C52.5775 32.1042 51.8379 32.25 51.0254 32.25ZM51.0254 30.5938C51.6452 30.5938 52.179 30.474 52.627 30.2344C53.0801 29.9896 53.4525 29.6562 53.7441 29.2344C54.041 28.8073 54.2598 28.3229 54.4004 27.7812C54.5462 27.2344 54.6191 26.6615 54.6191 26.0625C54.6191 25.2604 54.4915 24.513 54.2363 23.8203C53.9811 23.1276 53.5879 22.5677 53.0566 22.1406C52.5254 21.7135 51.8483 21.5 51.0254 21.5H50.7129V30.5938H51.0254ZM64.3125 32.25C63.1563 32.25 62.1589 31.9948 61.3203 31.4844C60.487 30.9688 59.8438 30.25 59.3906 29.3281C58.9427 28.401 58.7188 27.3229 58.7188 26.0938C58.7188 24.8646 58.9427 23.7812 59.3906 22.8437C59.8438 21.901 60.474 21.1667 61.2813 20.6406C62.0938 20.1094 63.0417 19.8438 64.125 19.8438C64.75 19.8438 65.3672 19.9479 65.9766 20.1562C66.5859 20.3646 67.1406 20.7031 67.6406 21.1719C68.1406 21.6354 68.5391 22.25 68.8359 23.0156C69.1328 23.7812 69.2812 24.724 69.2812 25.8437V26.625H60.0313V25.0312H67.4063C67.4063 24.3542 67.2708 23.75 67 23.2187C66.7344 22.6875 66.3542 22.2682 65.8594 21.9609C65.3698 21.6536 64.7917 21.5 64.125 21.5C63.3906 21.5 62.7552 21.6823 62.2188 22.0469C61.6875 22.4062 61.2786 22.875 60.9922 23.4531C60.7057 24.0312 60.5625 24.651 60.5625 25.3125V26.375C60.5625 27.2813 60.7188 28.0495 61.0312 28.6797C61.349 29.3047 61.7891 29.7812 62.3516 30.1094C62.9141 30.4323 63.5677 30.5938 64.3125 30.5938C64.7969 30.5938 65.2344 30.526 65.625 30.3906C66.0208 30.25 66.362 30.0417 66.6484 29.7656C66.9349 29.4844 67.1563 29.1354 67.3125 28.7187L69.0938 29.2188C68.9063 29.8229 68.5911 30.3542 68.1484 30.8125C67.7057 31.2656 67.1589 31.6198 66.5078 31.875C65.8568 32.125 65.125 32.25 64.3125 32.25ZM78.9609 24.2812V26H71.9609V24.2812H78.9609ZM82.2051 32V20H91.6426V32H89.7988V21.7187H84.0488V32H82.2051ZM100.041 32.25C98.8848 32.25 97.8874 31.9948 97.0488 31.4844C96.2155 30.9688 95.5723 30.25 95.1191 29.3281C94.6712 28.401 94.4473 27.3229 94.4473 26.0938C94.4473 24.8646 94.6712 23.7812 95.1191 22.8437C95.5723 21.901 96.2025 21.1667 97.0098 20.6406C97.8223 20.1094 98.7702 19.8438 99.8535 19.8438C100.479 19.8438 101.096 19.9479 101.705 20.1562C102.314 20.3646 102.869 20.7031 103.369 21.1719C103.869 21.6354 104.268 22.25 104.564 23.0156C104.861 23.7812 105.01 24.724 105.01 25.8437V26.625H95.7598V25.0312H103.135C103.135 24.3542 102.999 23.75 102.729 23.2187C102.463 22.6875 102.083 22.2682 101.588 21.9609C101.098 21.6536 100.52 21.5 99.8535 21.5C99.1191 21.5 98.4837 21.6823 97.9473 22.0469C97.416 22.4062 97.0072 22.875 96.7207 23.4531C96.4342 24.0312 96.291 24.651 96.291 25.3125V26.375C96.291 27.2813 96.4473 28.0495 96.7598 28.6797C97.0775 29.3047 97.5176 29.7812 98.0801 30.1094C98.6426 30.4323 99.2962 30.5938 100.041 30.5938C100.525 30.5938 100.963 30.526 101.354 30.3906C101.749 30.25 102.09 30.0417 102.377 29.7656C102.663 29.4844 102.885 29.1354 103.041 28.7187L104.822 29.2188C104.635 29.8229 104.32 30.3542 103.877 30.8125C103.434 31.2656 102.887 31.6198 102.236 31.875C101.585 32.125 100.854 32.25 100.041 32.25ZM107.814 32V20H109.658V25.2187H110.877L115.189 20H117.564L112.721 25.7812L117.627 32H115.252L111.314 26.9375H109.658V32H107.814ZM123.162 32.2813C122.402 32.2813 121.712 32.138 121.092 31.8516C120.472 31.5599 119.98 31.1406 119.615 30.5938C119.251 30.0417 119.068 29.375 119.068 28.5937C119.068 27.9062 119.204 27.349 119.475 26.9219C119.745 26.4896 120.107 26.151 120.561 25.9062C121.014 25.6615 121.514 25.4792 122.061 25.3594C122.613 25.2344 123.167 25.1354 123.725 25.0625C124.454 24.9687 125.045 24.8984 125.498 24.8516C125.956 24.7995 126.29 24.7135 126.498 24.5937C126.712 24.474 126.818 24.2656 126.818 23.9687V23.9062C126.818 23.1354 126.607 22.5365 126.186 22.1094C125.769 21.6823 125.136 21.4687 124.287 21.4687C123.407 21.4687 122.717 21.6615 122.217 22.0469C121.717 22.4323 121.365 22.8437 121.162 23.2812L119.412 22.6562C119.725 21.9271 120.141 21.3594 120.662 20.9531C121.188 20.5417 121.761 20.2552 122.381 20.0937C123.006 19.9271 123.62 19.8438 124.225 19.8438C124.61 19.8438 125.053 19.8906 125.553 19.9844C126.058 20.0729 126.545 20.2578 127.014 20.5391C127.488 20.8203 127.881 21.2448 128.193 21.8125C128.506 22.3802 128.662 23.1406 128.662 24.0938V32H126.818V30.375H126.725C126.6 30.6354 126.391 30.9141 126.1 31.2109C125.808 31.5078 125.42 31.7604 124.936 31.9687C124.451 32.1771 123.86 32.2813 123.162 32.2813ZM123.443 30.625C124.173 30.625 124.787 30.4818 125.287 30.1953C125.792 29.9089 126.173 29.5391 126.428 29.0859C126.688 28.6328 126.818 28.1562 126.818 27.6562V25.9687C126.74 26.0625 126.568 26.1484 126.303 26.2266C126.042 26.2995 125.74 26.3646 125.396 26.4219C125.058 26.474 124.727 26.5208 124.404 26.5625C124.087 26.599 123.829 26.6302 123.631 26.6562C123.152 26.7187 122.704 26.8203 122.287 26.9609C121.876 27.0964 121.542 27.3021 121.287 27.5781C121.037 27.849 120.912 28.2187 120.912 28.6875C120.912 29.3281 121.149 29.8125 121.623 30.1406C122.102 30.4635 122.709 30.625 123.443 30.625ZM132.027 36.5V20H133.809V21.9062H134.027C134.163 21.6979 134.35 21.4323 134.59 21.1094C134.835 20.7812 135.184 20.4896 135.637 20.2344C136.095 19.974 136.715 19.8438 137.496 19.8438C138.507 19.8438 139.397 20.0964 140.168 20.6016C140.939 21.1068 141.54 21.8229 141.973 22.75C142.405 23.6771 142.621 24.7708 142.621 26.0313C142.621 27.3021 142.405 28.4036 141.973 29.3359C141.54 30.263 140.941 30.9818 140.176 31.4922C139.41 31.9974 138.527 32.25 137.527 32.25C136.757 32.25 136.139 32.1224 135.676 31.8672C135.212 31.6068 134.855 31.3125 134.605 30.9844C134.355 30.651 134.163 30.375 134.027 30.1562H133.871V36.5H132.027ZM133.84 26C133.84 26.9062 133.973 27.7057 134.238 28.3984C134.504 29.0859 134.892 29.625 135.402 30.0156C135.913 30.401 136.538 30.5938 137.277 30.5938C138.048 30.5938 138.691 30.3906 139.207 29.9844C139.728 29.5729 140.118 29.0208 140.379 28.3281C140.645 27.6302 140.777 26.8542 140.777 26C140.777 25.1562 140.647 24.3958 140.387 23.7187C140.132 23.0365 139.743 22.4974 139.223 22.1016C138.707 21.7005 138.059 21.5 137.277 21.5C136.527 21.5 135.897 21.6901 135.387 22.0703C134.876 22.4453 134.491 22.9714 134.23 23.6484C133.97 24.3203 133.84 25.1042 133.84 26ZM153.465 25.1562V26.875H146.84V25.1562H153.465ZM147.277 20V32H145.434V20H147.277ZM154.871 20V32H153.027V20H154.871ZM165.457 32V21.6875H162.27C161.551 21.6875 160.986 21.8542 160.574 22.1875C160.163 22.5208 159.957 22.9792 159.957 23.5625C159.957 24.1354 160.142 24.5859 160.512 24.9141C160.887 25.2422 161.4 25.4063 162.051 25.4063H165.926V27.125H162.051C161.238 27.125 160.538 26.9818 159.949 26.6953C159.361 26.4089 158.908 26 158.59 25.4688C158.272 24.9323 158.113 24.2969 158.113 23.5625C158.113 22.8229 158.28 22.1875 158.613 21.6562C158.947 21.125 159.423 20.7161 160.043 20.4297C160.668 20.1432 161.41 20 162.27 20H167.207V32H165.457ZM157.457 32L160.863 26.0313H162.863L159.457 32H157.457ZM189.904 21H187.967C187.852 20.4427 187.652 19.9531 187.365 19.5312C187.084 19.1094 186.74 18.7552 186.334 18.4688C185.933 18.1771 185.488 17.9583 184.998 17.8125C184.508 17.6667 183.998 17.5937 183.467 17.5937C182.498 17.5937 181.62 17.8385 180.834 18.3281C180.053 18.8177 179.43 19.5391 178.967 20.4922C178.508 21.4453 178.279 22.6146 178.279 24C178.279 25.3854 178.508 26.5547 178.967 27.5078C179.43 28.4609 180.053 29.1823 180.834 29.6719C181.62 30.1615 182.498 30.4062 183.467 30.4062C183.998 30.4062 184.508 30.3333 184.998 30.1875C185.488 30.0417 185.933 29.8255 186.334 29.5391C186.74 29.2474 187.084 28.8906 187.365 28.4687C187.652 28.0417 187.852 27.5521 187.967 27H189.904C189.758 27.8177 189.493 28.5495 189.107 29.1953C188.722 29.8411 188.243 30.3906 187.67 30.8437C187.097 31.2917 186.454 31.6328 185.74 31.8672C185.032 32.1016 184.274 32.2187 183.467 32.2187C182.102 32.2187 180.889 31.8854 179.826 31.2188C178.764 30.5521 177.928 29.6042 177.318 28.375C176.709 27.1458 176.404 25.6875 176.404 24C176.404 22.3125 176.709 20.8542 177.318 19.625C177.928 18.3958 178.764 17.4479 179.826 16.7812C180.889 16.1146 182.102 15.7812 183.467 15.7812C184.274 15.7812 185.032 15.8984 185.74 16.1328C186.454 16.3672 187.097 16.7109 187.67 17.1641C188.243 17.612 188.722 18.1589 189.107 18.8047C189.493 19.4453 189.758 20.1771 189.904 21ZM192.785 32V20H194.629V32H192.785ZM193.723 18C193.363 18 193.053 17.8776 192.793 17.6328C192.538 17.388 192.41 17.0938 192.41 16.75C192.41 16.4063 192.538 16.112 192.793 15.8672C193.053 15.6224 193.363 15.5 193.723 15.5C194.082 15.5 194.389 15.6224 194.645 15.8672C194.905 16.112 195.035 16.4063 195.035 16.75C195.035 17.0938 194.905 17.388 194.645 17.6328C194.389 17.8776 194.082 18 193.723 18ZM199.85 24.7812V32H198.006V20H199.787V21.875H199.943C200.225 21.2656 200.652 20.776 201.225 20.4063C201.798 20.0313 202.537 19.8438 203.443 19.8438C204.256 19.8438 204.967 20.0104 205.576 20.3437C206.186 20.6719 206.66 21.1719 206.998 21.8437C207.337 22.5104 207.506 23.3542 207.506 24.375V32H205.662V24.5C205.662 23.5573 205.417 22.8229 204.928 22.2969C204.438 21.7656 203.766 21.5 202.912 21.5C202.324 21.5 201.798 21.6276 201.334 21.8828C200.876 22.138 200.514 22.5104 200.248 23C199.982 23.4896 199.85 24.0833 199.85 24.7812ZM212.719 24.7812V32H210.875V20H212.656V21.875H212.813C213.094 21.2656 213.521 20.776 214.094 20.4063C214.667 20.0313 215.406 19.8438 216.313 19.8438C217.125 19.8438 217.836 20.0104 218.445 20.3437C219.055 20.6719 219.529 21.1719 219.867 21.8437C220.206 22.5104 220.375 23.3542 220.375 24.375V32H218.531V24.5C218.531 23.5573 218.286 22.8229 217.797 22.2969C217.307 21.7656 216.635 21.5 215.781 21.5C215.193 21.5 214.667 21.6276 214.203 21.8828C213.745 22.138 213.383 22.5104 213.117 23C212.852 23.4896 212.719 24.0833 212.719 24.7812ZM227.275 32.2813C226.515 32.2813 225.825 32.138 225.205 31.8516C224.585 31.5599 224.093 31.1406 223.729 30.5938C223.364 30.0417 223.182 29.375 223.182 28.5937C223.182 27.9062 223.317 27.349 223.588 26.9219C223.859 26.4896 224.221 26.151 224.674 25.9062C225.127 25.6615 225.627 25.4792 226.174 25.3594C226.726 25.2344 227.281 25.1354 227.838 25.0625C228.567 24.9687 229.158 24.8984 229.611 24.8516C230.07 24.7995 230.403 24.7135 230.611 24.5937C230.825 24.474 230.932 24.2656 230.932 23.9687V23.9062C230.932 23.1354 230.721 22.5365 230.299 22.1094C229.882 21.6823 229.249 21.4687 228.4 21.4687C227.52 21.4687 226.83 21.6615 226.33 22.0469C225.83 22.4323 225.479 22.8437 225.275 23.2812L223.525 22.6562C223.838 21.9271 224.255 21.3594 224.775 20.9531C225.301 20.5417 225.874 20.2552 226.494 20.0937C227.119 19.9271 227.734 19.8438 228.338 19.8438C228.723 19.8438 229.166 19.8906 229.666 19.9844C230.171 20.0729 230.658 20.2578 231.127 20.5391C231.601 20.8203 231.994 21.2448 232.307 21.8125C232.619 22.3802 232.775 23.1406 232.775 24.0938V32H230.932V30.375H230.838C230.713 30.6354 230.505 30.9141 230.213 31.2109C229.921 31.5078 229.533 31.7604 229.049 31.9687C228.564 32.1771 227.973 32.2813 227.275 32.2813ZM227.557 30.625C228.286 30.625 228.9 30.4818 229.4 30.1953C229.906 29.9089 230.286 29.5391 230.541 29.0859C230.801 28.6328 230.932 28.1562 230.932 27.6562V25.9687C230.854 26.0625 230.682 26.1484 230.416 26.2266C230.156 26.2995 229.854 26.3646 229.51 26.4219C229.171 26.474 228.84 26.5208 228.518 26.5625C228.2 26.599 227.942 26.6302 227.744 26.6562C227.265 26.7187 226.817 26.8203 226.4 26.9609C225.989 27.0964 225.656 27.3021 225.4 27.5781C225.15 27.849 225.025 28.2187 225.025 28.6875C225.025 29.3281 225.262 29.8125 225.736 30.1406C226.215 30.4635 226.822 30.625 227.557 30.625ZM236.391 32V16H238.234V21.9062H238.391C238.526 21.6979 238.714 21.4323 238.953 21.1094C239.198 20.7812 239.547 20.4896 240 20.2344C240.458 19.974 241.078 19.8438 241.859 19.8438C242.87 19.8438 243.76 20.0964 244.531 20.6016C245.302 21.1068 245.904 21.8229 246.336 22.75C246.768 23.6771 246.984 24.7708 246.984 26.0313C246.984 27.3021 246.768 28.4036 246.336 29.3359C245.904 30.263 245.305 30.9818 244.539 31.4922C243.773 31.9974 242.891 32.25 241.891 32.25C241.12 32.25 240.503 32.1224 240.039 31.8672C239.576 31.6068 239.219 31.3125 238.969 30.9844C238.719 30.651 238.526 30.375 238.391 30.1562H238.172V32H236.391ZM238.203 26C238.203 26.9062 238.336 27.7057 238.602 28.3984C238.867 29.0859 239.255 29.625 239.766 30.0156C240.276 30.401 240.901 30.5938 241.641 30.5938C242.411 30.5938 243.055 30.3906 243.57 29.9844C244.091 29.5729 244.482 29.0208 244.742 28.3281C245.008 27.6302 245.141 26.8542 245.141 26C245.141 25.1562 245.01 24.3958 244.75 23.7187C244.495 23.0365 244.107 22.4974 243.586 22.1016C243.07 21.7005 242.422 21.5 241.641 21.5C240.891 21.5 240.26 21.6901 239.75 22.0703C239.24 22.4453 238.854 22.9714 238.594 23.6484C238.333 24.3203 238.203 25.1042 238.203 26ZM254.68 32.25C253.596 32.25 252.646 31.9922 251.828 31.4766C251.016 30.9609 250.38 30.2396 249.922 29.3125C249.469 28.3854 249.242 27.3021 249.242 26.0625C249.242 24.8125 249.469 23.7214 249.922 22.7891C250.38 21.8568 251.016 21.1328 251.828 20.6172C252.646 20.1016 253.596 19.8438 254.68 19.8438C255.763 19.8438 256.711 20.1016 257.523 20.6172C258.341 21.1328 258.977 21.8568 259.43 22.7891C259.888 23.7214 260.117 24.8125 260.117 26.0625C260.117 27.3021 259.888 28.3854 259.43 29.3125C258.977 30.2396 258.341 30.9609 257.523 31.4766C256.711 31.9922 255.763 32.25 254.68 32.25ZM254.68 30.5938C255.503 30.5938 256.18 30.3828 256.711 29.9609C257.242 29.5391 257.635 28.9844 257.891 28.2969C258.146 27.6094 258.273 26.8646 258.273 26.0625C258.273 25.2604 258.146 24.513 257.891 23.8203C257.635 23.1276 257.242 22.5677 256.711 22.1406C256.18 21.7135 255.503 21.5 254.68 21.5C253.857 21.5 253.18 21.7135 252.648 22.1406C252.117 22.5677 251.724 23.1276 251.469 23.8203C251.214 24.513 251.086 25.2604 251.086 26.0625C251.086 26.8646 251.214 27.6094 251.469 28.2969C251.724 28.9844 252.117 29.5391 252.648 29.9609C253.18 30.3828 253.857 30.5938 254.68 30.5938ZM264.775 24.7812V32H262.932V20H264.713V21.875H264.869C265.15 21.2656 265.577 20.776 266.15 20.4063C266.723 20.0313 267.463 19.8438 268.369 19.8438C269.182 19.8438 269.893 20.0104 270.502 20.3437C271.111 20.6719 271.585 21.1719 271.924 21.8437C272.262 22.5104 272.432 23.3542 272.432 24.375V32H270.588V24.5C270.588 23.5573 270.343 22.8229 269.854 22.2969C269.364 21.7656 268.692 21.5 267.838 21.5C267.249 21.5 266.723 21.6276 266.26 21.8828C265.801 22.138 265.439 22.5104 265.174 23C264.908 23.4896 264.775 24.0833 264.775 24.7812ZM281.988 32V20H286.895C288.186 20 289.212 20.2917 289.973 20.875C290.733 21.4583 291.113 22.2292 291.113 23.1875C291.113 23.9167 290.897 24.4818 290.465 24.8828C290.033 25.2786 289.478 25.5469 288.801 25.6875C289.243 25.75 289.673 25.9062 290.09 26.1562C290.512 26.4062 290.861 26.75 291.137 27.1875C291.413 27.6198 291.551 28.151 291.551 28.7812C291.551 29.3958 291.395 29.9453 291.082 30.4297C290.77 30.9141 290.322 31.2969 289.738 31.5781C289.155 31.8594 288.457 32 287.645 32H281.988ZM283.738 30.3125H287.645C288.28 30.3125 288.777 30.1615 289.137 29.8594C289.496 29.5573 289.676 29.1458 289.676 28.625C289.676 28.0052 289.496 27.5182 289.137 27.1641C288.777 26.8047 288.28 26.625 287.645 26.625H283.738V30.3125ZM283.738 25.0312H286.895C287.389 25.0312 287.814 24.9635 288.168 24.8281C288.522 24.6875 288.793 24.4896 288.98 24.2344C289.173 23.974 289.27 23.6667 289.27 23.3125C289.27 22.8073 289.059 22.4115 288.637 22.125C288.215 21.8333 287.634 21.6875 286.895 21.6875H283.738V25.0312ZM299.904 17.7187V16H311.904V17.7187H306.873V32H304.936V17.7187H299.904ZM328.488 30.1562L328.27 35.7812H326.27V32H325.145V30.1562H328.488ZM314.895 32V16H316.738V30.2187H324.988V16H326.832V32H314.895ZM338.26 32H336.229L342.104 16H344.104L349.979 32H347.947L343.166 18.5312H343.041L338.26 32ZM339.01 25.75H347.197V27.4687H339.01V25.75ZM352.221 36.5V20H354.002V21.9062H354.221C354.356 21.6979 354.544 21.4323 354.783 21.1094C355.028 20.7812 355.377 20.4896 355.83 20.2344C356.288 19.974 356.908 19.8438 357.689 19.8438C358.7 19.8438 359.59 20.0964 360.361 20.6016C361.132 21.1068 361.734 21.8229 362.166 22.75C362.598 23.6771 362.814 24.7708 362.814 26.0313C362.814 27.3021 362.598 28.4036 362.166 29.3359C361.734 30.263 361.135 30.9818 360.369 31.4922C359.604 31.9974 358.721 32.25 357.721 32.25C356.95 32.25 356.333 32.1224 355.869 31.8672C355.406 31.6068 355.049 31.3125 354.799 30.9844C354.549 30.651 354.356 30.375 354.221 30.1562H354.064V36.5H352.221ZM354.033 26C354.033 26.9062 354.166 27.7057 354.432 28.3984C354.697 29.0859 355.085 29.625 355.596 30.0156C356.106 30.401 356.731 30.5938 357.471 30.5938C358.242 30.5938 358.885 30.3906 359.4 29.9844C359.921 29.5729 360.312 29.0208 360.572 28.3281C360.838 27.6302 360.971 26.8542 360.971 26C360.971 25.1562 360.84 24.3958 360.58 23.7187C360.325 23.0365 359.937 22.4974 359.416 22.1016C358.9 21.7005 358.252 21.5 357.471 21.5C356.721 21.5 356.09 21.6901 355.58 22.0703C355.07 22.4453 354.684 22.9714 354.424 23.6484C354.163 24.3203 354.033 25.1042 354.033 26ZM370.658 32.25C369.502 32.25 368.505 31.9948 367.666 31.4844C366.833 30.9688 366.189 30.25 365.736 29.3281C365.288 28.401 365.064 27.3229 365.064 26.0938C365.064 24.8646 365.288 23.7812 365.736 22.8437C366.189 21.901 366.82 21.1667 367.627 20.6406C368.439 20.1094 369.387 19.8438 370.471 19.8438C371.096 19.8438 371.713 19.9479 372.322 20.1562C372.932 20.3646 373.486 20.7031 373.986 21.1719C374.486 21.6354 374.885 22.25 375.182 23.0156C375.479 23.7812 375.627 24.724 375.627 25.8437V26.625H366.377V25.0312H373.752C373.752 24.3542 373.617 23.75 373.346 23.2187C373.08 22.6875 372.7 22.2682 372.205 21.9609C371.715 21.6536 371.137 21.5 370.471 21.5C369.736 21.5 369.101 21.6823 368.564 22.0469C368.033 22.4062 367.624 22.875 367.338 23.4531C367.051 24.0312 366.908 24.651 366.908 25.3125V26.375C366.908 27.2813 367.064 28.0495 367.377 28.6797C367.695 29.3047 368.135 29.7812 368.697 30.1094C369.26 30.4323 369.913 30.5938 370.658 30.5938C371.143 30.5938 371.58 30.526 371.971 30.3906C372.367 30.25 372.708 30.0417 372.994 29.7656C373.281 29.4844 373.502 29.1354 373.658 28.7187L375.439 29.2188C375.252 29.8229 374.937 30.3542 374.494 30.8125C374.051 31.2656 373.505 31.6198 372.854 31.875C372.202 32.125 371.471 32.25 370.658 32.25ZM386.463 25.1562V26.875H379.838V25.1562H386.463ZM380.275 20V32H378.432V20H380.275ZM387.869 20V32H386.025V20H387.869ZM394.768 32.2813C394.007 32.2813 393.317 32.138 392.697 31.8516C392.077 31.5599 391.585 31.1406 391.221 30.5938C390.856 30.0417 390.674 29.375 390.674 28.5937C390.674 27.9062 390.809 27.349 391.08 26.9219C391.351 26.4896 391.713 26.151 392.166 25.9062C392.619 25.6615 393.119 25.4792 393.666 25.3594C394.218 25.2344 394.773 25.1354 395.33 25.0625C396.059 24.9687 396.65 24.8984 397.104 24.8516C397.562 24.7995 397.895 24.7135 398.104 24.5937C398.317 24.474 398.424 24.2656 398.424 23.9687V23.9062C398.424 23.1354 398.213 22.5365 397.791 22.1094C397.374 21.6823 396.742 21.4687 395.893 21.4687C395.012 21.4687 394.322 21.6615 393.822 22.0469C393.322 22.4323 392.971 22.8437 392.768 23.2812L391.018 22.6562C391.33 21.9271 391.747 21.3594 392.268 20.9531C392.794 20.5417 393.367 20.2552 393.986 20.0937C394.611 19.9271 395.226 19.8438 395.83 19.8438C396.215 19.8438 396.658 19.8906 397.158 19.9844C397.663 20.0729 398.15 20.2578 398.619 20.5391C399.093 20.8203 399.486 21.2448 399.799 21.8125C400.111 22.3802 400.268 23.1406 400.268 24.0938V32H398.424V30.375H398.33C398.205 30.6354 397.997 30.9141 397.705 31.2109C397.413 31.5078 397.025 31.7604 396.541 31.9687C396.057 32.1771 395.465 32.2813 394.768 32.2813ZM395.049 30.625C395.778 30.625 396.393 30.4818 396.893 30.1953C397.398 29.9089 397.778 29.5391 398.033 29.0859C398.294 28.6328 398.424 28.1562 398.424 27.6562V25.9687C398.346 26.0625 398.174 26.1484 397.908 26.2266C397.648 26.2995 397.346 26.3646 397.002 26.4219C396.663 26.474 396.333 26.5208 396.01 26.5625C395.692 26.599 395.434 26.6302 395.236 26.6562C394.757 26.7187 394.309 26.8203 393.893 26.9609C393.481 27.0964 393.148 27.3021 392.893 27.5781C392.643 27.849 392.518 28.2187 392.518 28.6875C392.518 29.3281 392.755 29.8125 393.229 30.1406C393.708 30.4635 394.314 30.625 395.049 30.625ZM422.039 16V32H420.102V17.7187H412.039V32H410.102V16H422.039ZM424.635 32V30.2812H425.072C425.432 30.2812 425.731 30.2109 425.971 30.0703C426.21 29.9245 426.403 29.6719 426.549 29.3125C426.7 28.9479 426.814 28.4427 426.893 27.7969C426.976 27.1458 427.036 26.3177 427.072 25.3125L427.291 20H435.291V32H433.447V21.7187H429.041L428.854 26C428.812 26.9844 428.723 27.8516 428.588 28.6016C428.458 29.3464 428.257 29.9714 427.986 30.4766C427.721 30.9818 427.367 31.362 426.924 31.6172C426.481 31.8724 425.926 32 425.26 32H424.635ZM442.205 32.2813C441.445 32.2813 440.755 32.138 440.135 31.8516C439.515 31.5599 439.023 31.1406 438.658 30.5938C438.294 30.0417 438.111 29.375 438.111 28.5937C438.111 27.9062 438.247 27.349 438.518 26.9219C438.788 26.4896 439.15 26.151 439.604 25.9062C440.057 25.6615 440.557 25.4792 441.104 25.3594C441.656 25.2344 442.21 25.1354 442.768 25.0625C443.497 24.9687 444.088 24.8984 444.541 24.8516C444.999 24.7995 445.333 24.7135 445.541 24.5937C445.755 24.474 445.861 24.2656 445.861 23.9687V23.9062C445.861 23.1354 445.65 22.5365 445.229 22.1094C444.812 21.6823 444.179 21.4687 443.33 21.4687C442.45 21.4687 441.76 21.6615 441.26 22.0469C440.76 22.4323 440.408 22.8437 440.205 23.2812L438.455 22.6562C438.768 21.9271 439.184 21.3594 439.705 20.9531C440.231 20.5417 440.804 20.2552 441.424 20.0937C442.049 19.9271 442.663 19.8438 443.268 19.8438C443.653 19.8438 444.096 19.8906 444.596 19.9844C445.101 20.0729 445.588 20.2578 446.057 20.5391C446.531 20.8203 446.924 21.2448 447.236 21.8125C447.549 22.3802 447.705 23.1406 447.705 24.0938V32H445.861V30.375H445.768C445.643 30.6354 445.434 30.9141 445.143 31.2109C444.851 31.5078 444.463 31.7604 443.979 31.9687C443.494 32.1771 442.903 32.2813 442.205 32.2813ZM442.486 30.625C443.215 30.625 443.83 30.4818 444.33 30.1953C444.835 29.9089 445.215 29.5391 445.471 29.0859C445.731 28.6328 445.861 28.1562 445.861 27.6562V25.9687C445.783 26.0625 445.611 26.1484 445.346 26.2266C445.085 26.2995 444.783 26.3646 444.439 26.4219C444.101 26.474 443.77 26.5208 443.447 26.5625C443.13 26.599 442.872 26.6302 442.674 26.6562C442.195 26.7187 441.747 26.8203 441.33 26.9609C440.919 27.0964 440.585 27.3021 440.33 27.5781C440.08 27.849 439.955 28.2187 439.955 28.6875C439.955 29.3281 440.192 29.8125 440.666 30.1406C441.145 30.4635 441.752 30.625 442.486 30.625ZM450.32 28.9375H452.289C452.331 29.4792 452.576 29.8906 453.023 30.1719C453.477 30.4531 454.065 30.5938 454.789 30.5938C455.529 30.5938 456.161 30.4427 456.688 30.1406C457.214 29.8333 457.477 29.3385 457.477 28.6562C457.477 28.2552 457.378 27.9062 457.18 27.6094C456.982 27.3073 456.703 27.0729 456.344 26.9062C455.984 26.7396 455.56 26.6562 455.07 26.6562H453.008V25H455.07C455.805 25 456.346 24.8333 456.695 24.5C457.049 24.1667 457.227 23.75 457.227 23.25C457.227 22.7135 457.036 22.2839 456.656 21.9609C456.276 21.6328 455.737 21.4687 455.039 21.4687C454.336 21.4687 453.75 21.6276 453.281 21.9453C452.813 22.2578 452.565 22.6615 452.539 23.1562H450.602C450.622 22.5104 450.82 21.9401 451.195 21.4453C451.57 20.9453 452.081 20.5547 452.727 20.2734C453.372 19.987 454.112 19.8438 454.945 19.8438C455.789 19.8438 456.521 19.9922 457.141 20.2891C457.766 20.5807 458.247 20.9792 458.586 21.4844C458.93 21.9844 459.102 22.5521 459.102 23.1875C459.102 23.8646 458.911 24.4115 458.531 24.8281C458.151 25.2448 457.674 25.5417 457.102 25.7187V25.8437C457.555 25.875 457.948 26.0208 458.281 26.2812C458.62 26.5365 458.883 26.8724 459.07 27.2891C459.258 27.7005 459.352 28.1562 459.352 28.6562C459.352 29.3854 459.156 30.0208 458.766 30.5625C458.375 31.099 457.839 31.5156 457.156 31.8125C456.474 32.1042 455.695 32.25 454.82 32.25C453.971 32.25 453.211 32.112 452.539 31.8359C451.867 31.5547 451.333 31.1667 450.938 30.6719C450.547 30.1719 450.341 29.5938 450.32 28.9375ZM465.473 32.2813C464.712 32.2813 464.022 32.138 463.402 31.8516C462.783 31.5599 462.29 31.1406 461.926 30.5938C461.561 30.0417 461.379 29.375 461.379 28.5937C461.379 27.9062 461.514 27.349 461.785 26.9219C462.056 26.4896 462.418 26.151 462.871 25.9062C463.324 25.6615 463.824 25.4792 464.371 25.3594C464.923 25.2344 465.478 25.1354 466.035 25.0625C466.764 24.9687 467.355 24.8984 467.809 24.8516C468.267 24.7995 468.6 24.7135 468.809 24.5937C469.022 24.474 469.129 24.2656 469.129 23.9687V23.9062C469.129 23.1354 468.918 22.5365 468.496 22.1094C468.079 21.6823 467.447 21.4687 466.598 21.4687C465.717 21.4687 465.027 21.6615 464.527 22.0469C464.027 22.4323 463.676 22.8437 463.473 23.2812L461.723 22.6562C462.035 21.9271 462.452 21.3594 462.973 20.9531C463.499 20.5417 464.072 20.2552 464.691 20.0937C465.316 19.9271 465.931 19.8438 466.535 19.8438C466.921 19.8438 467.363 19.8906 467.863 19.9844C468.368 20.0729 468.855 20.2578 469.324 20.5391C469.798 20.8203 470.191 21.2448 470.504 21.8125C470.816 22.3802 470.973 23.1406 470.973 24.0938V32H469.129V30.375H469.035C468.91 30.6354 468.702 30.9141 468.41 31.2109C468.118 31.5078 467.73 31.7604 467.246 31.9687C466.762 32.1771 466.171 32.2813 465.473 32.2813ZM465.754 30.625C466.483 30.625 467.098 30.4818 467.598 30.1953C468.103 29.9089 468.483 29.5391 468.738 29.0859C468.999 28.6328 469.129 28.1562 469.129 27.6562V25.9687C469.051 26.0625 468.879 26.1484 468.613 26.2266C468.353 26.2995 468.051 26.3646 467.707 26.4219C467.368 26.474 467.038 26.5208 466.715 26.5625C466.397 26.599 466.139 26.6302 465.941 26.6562C465.462 26.7187 465.014 26.8203 464.598 26.9609C464.186 27.0964 463.853 27.3021 463.598 27.5781C463.348 27.849 463.223 28.2187 463.223 28.6875C463.223 29.3281 463.46 29.8125 463.934 30.1406C464.413 30.4635 465.02 30.625 465.754 30.625Z" fill="white"/>
<path d="M1414.35 51.3536C1414.55 51.1583 1414.55 50.8417 1414.35 50.6464L1411.17 47.4645C1410.98 47.2692 1410.66 47.2692 1410.46 47.4645C1410.27 47.6597 1410.27 47.9763 1410.46 48.1716L1413.29 51L1410.46 53.8284C1410.27 54.0237 1410.27 54.3403 1410.46 54.5355C1410.66 54.7308 1410.98 54.7308 1411.17 54.5355L1414.35 51.3536ZM4 51.5H1414V50.5H4V51.5Z" fill="white"/>
</svg>
