<svg width="24" height="25" viewBox="0 0 24 25" fill="none" xmlns="http://www.w3.org/2000/svg">
<path d="M14.9996 2.90039V6.50039C14.9996 7.16313 15.5369 7.70039 16.1996 7.70039H19.7996M8.39959 7.70039H10.7996M8.39959 11.3004H15.5996M8.39959 14.9004H15.5996M17.9996 4.70039C17.4655 4.22253 16.9113 3.65577 16.5614 3.28767C16.3286 3.04273 16.007 2.90039 15.669 2.90039H6.59931C5.27383 2.90039 4.19932 3.9749 4.19931 5.30038L4.19922 19.7003C4.19921 21.0258 5.27372 22.1003 6.59921 22.1003L17.3993 22.1004C18.7247 22.1004 19.7992 21.0259 19.7993 19.7004L19.7996 6.97822C19.7996 6.67138 19.6825 6.37643 19.4696 6.15552C19.0758 5.74704 18.4182 5.07491 17.9996 4.70039Z" stroke="#222222" stroke-width="2" stroke-linecap="round" stroke-linejoin="round"/>
</svg>
