<svg width="587" height="354" viewBox="0 0 587 354" fill="none" xmlns="http://www.w3.org/2000/svg">
<path d="M587 0L479.214 41.419L568.977 114.055L587 0ZM336.836 301.58L344.493 295.148L336.836 301.58ZM343.009 301.523L335.235 295.233L343.009 301.523ZM192.611 137.034L200.121 143.637L192.611 137.034ZM198.678 137.102L191.021 143.534L198.678 137.102ZM15.51 353.603L200.121 143.637L185.101 130.431L0.490045 340.397L15.51 353.603ZM191.021 143.534L329.179 308.011L344.493 295.148L206.335 130.671L191.021 143.534ZM350.782 307.813L538.16 76.2537L522.612 63.6728L335.235 295.233L350.782 307.813ZM329.179 308.011C334.841 314.752 345.245 314.656 350.782 307.813L335.235 295.233C337.608 292.3 342.067 292.259 344.493 295.148L329.179 308.011ZM200.121 143.637C197.696 146.396 193.383 146.347 191.021 143.534L206.335 130.671C200.823 124.108 190.76 123.994 185.101 130.431L200.121 143.637Z" fill="#6667AB"/>
</svg>
