<svg width="126" height="126" viewBox="0 0 126 126" fill="none" xmlns="http://www.w3.org/2000/svg">
<path fill-rule="evenodd" clip-rule="evenodd" d="M0 63.0761C0 28.1994 28.1933 0 62.9986 0C97.8039 0 126 28.1994 126 63.0761C126 97.9529 97.8012 126 62.9986 126C28.1961 126 0 97.8169 0 63.0761ZM19.545 90.256V36.1084H28.3374L38.2146 62.3448V36.1084H47.4502V89.9678H39.5278L29.7158 61.695V90.256H19.545ZM50.8622 74.1194C50.4273 84.4416 55.5075 90.8985 64.8091 90.8998C69.0245 90.8991 78.7619 88.9425 78.4683 76.0824C78.3041 67.5927 73.252 63.2332 68.654 59.2655C65.1842 56.2713 61.9729 53.5003 61.3158 49.3457C60.7421 45.6373 62.5583 43.5248 65.1737 43.5248C68.08 43.5248 69.0234 46.8689 69.0234 52.1651H77.7397C77.5249 39.3759 73.1695 35.749 65.2471 35.749C55.6554 35.749 51.8029 41.7032 51.8029 50.1369C51.8029 59.1653 56.9934 63.4628 61.5386 67.2259C65.0784 70.1567 68.2268 72.7634 68.2268 77.0285C68.2268 80.5847 67.1366 82.8359 64.9562 82.8359C60.6714 82.8359 60.5219 79.209 60.5219 74.1194H50.8622ZM82.4703 89.9678V36.122H104.851V44.4061H93.1495V58.1986H101.507V67.5159H93.1495V89.9678H82.4703ZM106.156 86.3216C106.156 88.725 104.264 90.4677 102.015 90.4677C99.7616 90.4677 97.7959 88.7087 97.7959 86.3216C97.7959 83.9345 99.7697 82.1074 102.015 82.1074C104.261 82.1074 106.156 83.9181 106.156 86.3216ZM102.015 82.8388C100.129 82.8388 98.6007 84.2961 98.6007 86.3216C98.6007 88.2873 100.129 89.7445 102.015 89.7445C103.902 89.7445 105.43 88.3471 105.43 86.3216C105.43 84.2961 103.902 82.8388 102.015 82.8388ZM102.015 86.6179H101.145V88.725H100.414V83.9345H102.233C103.397 83.9345 103.978 84.2961 103.978 85.2422C103.978 86.1095 103.397 86.4738 102.665 86.6179L104.049 88.725H103.255L102.015 86.6179ZM101.145 84.5081V86.0361H102.015C102.597 86.0361 103.179 85.9654 103.179 85.2422C103.179 84.6577 102.665 84.5081 102.159 84.5081H101.145Z" fill="white"/>
</svg>
