<svg width="123" height="64" viewBox="0 0 123 64" fill="none" xmlns="http://www.w3.org/2000/svg">
<path d="M56.2537 49.4545V62.2545H0V57.0182C0 29.0909 39.8464 33.7455 39.8464 20.9455C39.8464 15.1273 35.1586 12.2182 28.1268 12.2182C21.0951 12.2182 16.4073 16.2909 16.4073 23.8545V25.6H0V23.8545C0 8.72727 11.7195 0 28.7128 0C44.5342 0 56.2537 7.56364 56.2537 20.9455C56.2537 41.8909 25.7829 40.1455 18.7512 49.4545H56.2537Z" fill="white"/>
<path d="M77.2939 32C77.2939 42.9382 81.5129 51.7818 91.9433 51.7818C102.374 51.7818 106.593 42.9382 106.593 32C106.593 21.0618 102.374 12.2182 91.9433 12.2182C81.5129 12.2182 77.2939 21.0618 77.2939 32ZM60.8866 32C60.8866 14.3127 71.9029 0 91.9433 0C111.984 0 123 14.3127 123 32C123 49.6873 111.984 64 91.9433 64C71.9029 64 60.8866 49.6873 60.8866 32Z" fill="white"/>
</svg>
