<svg width="137" height="126" viewBox="0 0 137 126" fill="none" xmlns="http://www.w3.org/2000/svg">
<path d="M111.197 54.1491C112.119 55.5626 112.058 57.4065 112.242 59.0662C112.18 62.5694 112.487 66.7488 111.873 70.3142C111.566 71.7889 110.583 73.3256 109.047 73.8789C106.59 74.9852 103.272 74.6778 100.999 73.3873C99.0946 72.035 98.8492 69.7607 98.6032 67.6095C98.419 63.3683 98.1119 58.8816 99.2788 55.0095C100.2 52.6125 102.719 51.9979 104.993 51.8133C107.388 51.8133 109.723 52.1822 111.197 54.1491Z" fill="white"/>
<path d="M0 126V0H137V126H0ZM72.2473 15.0586C70.589 14.8743 68.5615 14.8128 66.7799 14.997C66.1041 14.9355 65.3052 14.997 64.5067 15.0586C49.7623 16.2263 36.1851 23.9092 27.7072 37.0011C28.3215 36.9396 29.0586 37.1853 29.6729 36.9396C31.1477 34.8499 32.8062 32.8214 34.6493 30.8548C36.2466 29.3182 37.721 27.8428 39.4413 26.7366C41.0384 27.7816 42.8203 28.642 44.3561 29.6255C42.4516 32.0225 40.4856 34.4195 39.0727 37.0011C39.5025 37.1854 40.3014 37.1239 40.9157 37.0011C42.4516 34.7268 44.1102 32.4526 46.0762 30.4244C48.7178 31.4078 51.2982 32.4526 54.0013 33.1903L54.2469 33.4361L52.7111 37.0011C53.3869 37.1239 53.8171 37.0623 54.4929 37.0011C55.0457 35.9561 55.4756 34.7884 56.09 33.7434C59.6534 34.5426 63.401 34.9726 67.2098 35.0957C67.7014 35.5257 67.3328 36.4477 67.517 37.0011H69.1758C69.36 36.3865 69.1143 35.7103 69.36 35.1572C72.9234 34.9727 76.6707 34.6038 80.1115 33.7434L80.4187 33.8049L82.0769 37.0011C82.63 37.0011 83.3673 37.1239 83.7975 36.878L82.2617 33.3133L82.384 33.1903C85.2104 32.4526 87.852 31.3464 90.5554 30.2402C92.4596 32.2683 94.2414 34.6654 95.8385 37.0011C96.514 37.0011 97.1902 37.0623 97.6816 36.878C96.9442 35.5257 96.0227 34.1738 95.04 33.006C94.2415 31.838 93.3811 30.7932 92.3366 29.6867V29.3794L96.637 26.8597L97.2514 26.6136C100.999 29.5024 104.316 33.006 106.958 36.878C107.695 36.878 108.31 37.1239 108.924 36.8166C100.692 24.2781 87.1146 16.2263 72.432 15.0586L72.3703 15.1816L72.2473 15.0586ZM78.5756 17.8244V17.9474C73.2306 21.881 64.5682 22.2499 58.9161 18.6233C58.6089 18.3775 57.9945 18.2548 57.933 17.8244C64.4452 16.2878 72.1249 16.1648 78.5756 17.8244ZM95.4701 25.3231L95.3472 25.5689L91.1079 27.9658H90.8007C87.5448 24.6469 83.7357 21.7579 79.8655 19.4841C79.9885 19.0537 80.6028 18.7464 81.033 18.439C86.1931 19.7913 91.0467 22.1268 95.4701 25.3231ZM56.7658 19.4841C52.9571 21.881 49.2095 24.7084 45.769 28.1501C44.1102 27.5354 42.5743 26.6136 41.0999 25.5689V25.4458C44.9705 22.5572 49.271 20.406 53.8171 18.9306C54.0012 18.7464 54.1243 18.5621 54.37 18.5621V18.6848C54.8613 18.8079 55.2299 18.2547 55.6601 18.6233C56.0288 18.9306 56.4586 19.1767 56.7658 19.4841ZM89.0195 28.7648L88.8965 28.9493C86.5003 29.994 84.0429 30.9775 81.4013 31.5306C79.4971 28.2732 77.4081 25.0157 75.0736 21.881C75.9334 21.3891 76.9779 21.0207 77.8994 20.5287C81.8927 22.5572 85.763 25.4458 89.0195 28.7648ZM61.3735 21.758L61.1892 22.2499C58.8545 25.2 57.0115 28.3962 55.1685 31.5306L54.9228 31.5922C52.4039 30.916 49.9465 30.1171 47.6121 29.0721L47.735 28.7036C51.114 25.4458 54.6771 22.7415 58.6089 20.6518C59.5304 21.0206 60.452 21.328 61.3735 21.758ZM67.3328 22.9257C67.517 26.1219 67.3942 29.8098 67.3942 33.1903C65.6739 33.4361 64.138 33.1288 62.418 33.006C60.7592 32.7599 58.6704 32.5756 57.0115 32.0225C58.7934 28.642 60.8821 25.3842 63.401 22.3726L67.3328 22.9257ZM73.1076 22.4342C75.5038 25.5073 77.8382 28.642 79.4353 32.0225C76.1181 32.8214 72.7392 33.2518 69.2985 33.2518C69.1758 29.994 69.2373 26.3678 69.2985 22.9873C70.5272 22.803 71.8789 22.6184 73.1076 22.4342ZM68.1313 43.3317C61.3735 40.4428 51.9125 40.1354 45.769 44.6225C41.7757 47.5726 40.547 52.8585 41.5915 57.5298C42.3901 61.955 46.5676 65.2125 50.5608 66.749C56.0288 68.716 61.7421 70.1296 67.2713 72.0353C67.8242 72.2808 68.5615 72.8341 68.4385 73.51C68.4385 74.0634 67.8856 74.3707 67.4555 74.6168C61.6806 76.2147 55.4145 74.9854 51.2367 70.5599C50.7453 69.9453 50.4381 69.2076 49.9465 68.593L41.6528 68.6547C41.5301 73.6331 41.4686 79.3491 41.6528 84.2661L50.868 84.2049L50.991 81.2548C52.0355 81.7464 53.0797 82.361 54.1242 82.9144C60.5134 85.6184 68.7456 86.233 75.0736 82.9144C79.6813 80.3328 82.1387 75.3539 81.4625 70.0071C80.787 64.7827 75.8722 60.0499 70.8962 58.7591L56.0288 54.3952L54.9228 53.842C54.4314 53.4117 54.1242 52.8585 54.2469 52.1824C55.4144 50.1542 58.1175 50.7688 60.1448 50.8304C64.4452 51.445 68.8686 52.9201 71.3875 56.9152C74.0903 56.9152 77.2238 56.9767 80.1726 56.8537C80.2956 51.8135 80.1115 47.3883 80.0496 42.2868C77.2851 42.2255 73.9061 42.2254 71.1415 42.3482C71.0186 43.0859 71.2645 44.1306 70.9574 44.8682L68.1313 43.3317ZM120.228 45.2987C112.242 40.1355 100.078 39.7669 91.8452 44.4379C87.3606 46.7737 84.4119 51.3835 83.4904 56.116C81.8315 63.922 82.2617 73.2028 88.1592 79.0417C95.04 85.1881 105.054 86.5404 113.962 84.0206C114.384 83.936 115.728 83.5902 116.65 83.0908L116.911 82.9757C119.675 81.8076 122.317 79.9025 124.283 77.3209C128.829 70.5598 129.136 60.4184 126.372 52.797C125.266 49.8469 122.993 47.2038 120.228 45.2987ZM15.8501 41.6108L12.0413 41.6721C11.9798 44.9298 11.9798 48.7404 12.0413 52.0597C14.13 52.1209 16.096 52.0597 18.1233 52.2439V73.1414L18.0618 74.0022L11.9798 74.1246C11.8568 77.5669 11.8568 80.8857 11.9798 84.2661H39.0727V74.1246C37.0451 74.0022 34.7723 74.1865 32.8062 73.9404L32.8677 52.367L32.9907 52.1824L39.0727 52.1209C39.1341 48.6176 39.1954 44.8682 39.0112 41.6721L15.8501 41.6108ZM54.8001 88.8146C54.1858 88.8146 53.5099 88.6916 53.0797 88.8759L54.6156 92.5025L54.4314 92.6867C51.6668 93.4862 48.9638 94.4694 46.3219 95.5756L46.0762 95.4526C44.3561 93.5474 42.6972 91.4575 41.3456 89.3681C41.0384 88.3231 39.8097 88.9377 39.1342 88.8146C40.6086 91.5187 42.5743 93.916 44.5403 96.3745C42.8815 97.3577 41.2229 98.4645 39.5025 99.2634C35.8164 96.4358 32.3763 92.748 29.7959 88.8759C29.0586 88.7535 28.5673 88.8147 27.8299 88.8759C32.2533 95.8829 39.1342 102.029 46.3219 105.655C46.3219 105.655 46.3219 105.594 46.3834 105.594C46.4449 105.594 46.5676 105.717 46.4449 105.779C51.2982 108.176 56.4586 109.896 61.9263 110.634C80.787 113.155 98.7873 104.979 109.231 88.8759C108.679 88.8147 107.88 88.8147 107.265 88.8759C104.685 92.6255 101.429 96.2521 97.8657 99.0791C97.7428 99.2634 97.3744 99.2016 97.2514 99.0179C95.7156 98.0341 94.0566 97.2352 92.5826 96.2521C94.5486 93.8547 96.4528 91.4575 97.9275 88.8146H96.0227C94.4868 91.0889 92.8898 93.4862 90.8625 95.5138C88.1592 94.4082 85.7018 93.4244 82.9372 92.6867L82.63 92.4406C83.0602 91.2113 83.8587 90.0439 84.1047 88.8146H82.4459L80.787 92.1333C77.1621 91.335 73.1688 90.904 69.483 90.6586C69.2985 90.1051 69.5445 89.3062 69.2985 88.8146H67.7014C67.5784 89.5523 67.8856 90.1051 67.517 90.7204C63.7082 90.9041 60.0221 91.335 56.4586 92.0721L54.8001 88.8146ZM67.7014 102.951C66.4113 103.258 64.998 103.258 63.7693 103.566C61.2508 100.554 59.1617 97.2964 57.3801 93.9159L57.6873 93.6698C60.8821 93.0552 64.1995 92.5643 67.64 92.5643L67.7014 102.951ZM79.8043 93.7935L79.8655 93.9772C78.1454 97.2965 75.9951 100.493 73.6607 103.504C72.6162 103.628 71.6329 103.197 70.589 103.136L69.5445 103.013C69.4215 99.3865 69.36 96.1902 69.5445 92.5643C73.0464 92.6255 76.5477 92.994 79.8043 93.7935ZM55.5371 94.3464C57.3187 97.7269 59.5304 100.923 61.7421 104.119C60.8821 104.611 59.8376 104.918 58.9776 105.41C54.9228 103.382 51.0525 100.555 47.7963 97.1741V96.9891C50.1925 95.8211 52.7111 94.961 55.2914 94.2845L55.5371 94.3464ZM89.3267 96.928C87.3606 99.2017 84.8414 101.169 82.507 102.828C81.0941 103.689 79.6813 104.611 78.2066 105.348L75.565 104.18L75.7492 103.75C77.9612 100.738 79.9267 97.665 81.6473 94.4082L81.8315 94.2845C84.4731 94.8992 86.9916 95.7599 89.3267 96.928ZM95.8997 100.431C92.4596 103.197 88.4663 105.041 84.4119 106.577L81.5243 107.499C81.033 107.254 80.6028 106.885 80.1726 106.516L80.2956 106.332C84.2271 103.996 87.7908 101.169 91.1697 97.7887C92.828 98.4645 94.4256 99.3865 95.8997 100.431ZM56.9503 106.516C56.6432 106.885 56.1515 107.254 55.7216 107.499C50.5608 106.147 45.769 103.811 41.3456 100.616V100.431C42.8203 99.509 44.2947 98.5257 45.892 97.8499C49.3937 101.353 53.0182 103.996 56.9503 106.516ZM78.9439 107.93C79.1281 108.299 78.6367 108.176 78.5138 108.299C72.0019 109.712 64.7524 109.774 58.2402 108.176C58.1175 107.868 58.5474 107.806 58.7319 107.623C64.4452 103.873 73.3536 103.873 78.9439 107.93Z" fill="white"/>
</svg>
