<svg width="173" height="52" viewBox="0 0 173 52" fill="none" xmlns="http://www.w3.org/2000/svg">
<path d="M0 50.5818L17.6646 1.41818H32.5897L50.2543 50.5818H36.0848L24.7493 15.6945L13.4137 50.5818H0Z" fill="white"/>
<path d="M49.7443 26C49.7443 11.6291 58.1515 0 74.3047 0C90.4578 0 97.9204 11.6291 97.9204 26C97.9204 27.1345 97.826 28.8364 97.826 28.8364H63.0636C63.6304 36.4 66.8421 42.0727 74.777 42.0727C82.8064 42.0727 84.2233 34.5091 84.2233 34.5091H97.4481C97.4481 34.5091 94.6142 52 74.3047 52C57.7737 52 49.7443 40.3709 49.7443 26ZM74.3047 9.92727C67.7867 9.92727 64.575 14.2764 63.4415 20.3273H84.3178C83.4676 14.2764 80.8226 9.92727 74.3047 9.92727Z" fill="white"/>
<path d="M130.964 50.5818V23.1636C130.964 14.6545 129.264 10.8727 124.068 10.8727C118.4 10.8727 115.378 15.1273 115.378 25.0545V50.5818H102.153V1.41818H114.905V9.45455H115.378C115.378 9.45455 118.684 0 128.602 0C136.537 0 140.788 3.78182 142.677 9.54909L142.772 9.45455H143.244C143.244 9.45455 147.495 0 157.414 0C169.694 0 173 8.98182 173 20.3273V50.5818H159.775V23.1636C159.775 14.6545 158.075 10.8727 152.879 10.8727C147.212 10.8727 144.189 15.1273 144.189 25.0545V50.5818H130.964Z" fill="white"/>
</svg>
