<svg width="128" height="128" viewBox="0 0 128 128" fill="none" xmlns="http://www.w3.org/2000/svg">
<path fill-rule="evenodd" clip-rule="evenodd" d="M94.8133 85.6C92.8116 93.1323 88.1252 99.6729 81.6367 103.99C75.1481 108.308 67.3049 110.104 59.584 109.041C51.8632 107.978 44.7973 104.129 39.7168 98.2189C34.6363 92.3087 31.8918 84.745 32 76.952C31.9374 74.2947 32.3762 71.6495 33.2933 69.1547C36.3813 49.5867 55.4267 48.168 44.8 18.6667C44.8 18.6667 62.5333 23.272 66.1333 51.048C66.1333 51.048 79.2507 50.6134 70.4 31.6187C77.3445 36.0857 83.2323 42.0123 87.6534 48.9861C92.0745 55.9599 94.9228 63.8134 96 72C96.0725 76.5621 95.6749 81.1195 94.8133 85.6Z" fill="#6667AB"/>
<path fill-rule="evenodd" clip-rule="evenodd" d="M82.667 89.3335C82.5871 94.4716 80.5326 99.3817 76.9295 103.046C73.3265 106.709 68.4515 108.846 63.3155 109.012C58.1795 109.178 53.1767 107.361 49.3446 103.937C45.5125 100.514 43.1452 95.7464 42.7337 90.6242L42.667 90.6669C42.667 90.6669 42.467 81.9415 42.667 80.0002C44.491 62.3709 49.6003 54.4989 56.0003 42.6669C56.179 35.6295 53.027 62.0615 69.3337 69.3335C73.2692 70.997 76.6301 73.7786 79.0002 77.3337C81.3702 80.8887 82.6451 85.061 82.667 89.3335Z" fill="#EFC173"/>
</svg>
